<svg id="visual" viewBox="0 0 900 450" width="900" height="450" xmlns="http://www.w3.org/2000/svg" xmlns:xlink="http://www.w3.org/1999/xlink" version="1.1"><rect x="0" y="0" width="900" height="450" fill="#B3A7DD"></rect><path d="M0 177L18.8 201.7C37.7 226.3 75.3 275.7 112.8 271.7C150.3 267.7 187.7 210.3 225.2 191.7C262.7 173 300.3 193 337.8 220.2C375.3 247.3 412.7 281.7 450.2 285.5C487.7 289.3 525.3 262.7 562.8 256.7C600.3 250.7 637.7 265.3 675.2 269.2C712.7 273 750.3 266 787.8 254.7C825.3 243.3 862.7 227.7 881.3 219.8L900 212L900 451L881.3 451C862.7 451 825.3 451 787.8 451C750.3 451 712.7 451 675.2 451C637.7 451 600.3 451 562.8 451C525.3 451 487.7 451 450.2 451C412.7 451 375.3 451 337.8 451C300.3 451 262.7 451 225.2 451C187.7 451 150.3 451 112.8 451C75.3 451 37.7 451 18.8 451L0 451Z" fill="#2E19B3" stroke-linecap="round" stroke-linejoin="miter"></path></svg>