<svg id="visual" viewBox="0 0 900 600" width="900" height="600" xmlns="http://www.w3.org/2000/svg" xmlns:xlink="http://www.w3.org/1999/xlink" version="1.1"><path d="M0 73L13.7 71C27.3 69 54.7 65 82 72C109.3 79 136.7 97 163.8 101C191 105 218 95 245.2 88C272.3 81 299.7 77 327 85C354.3 93 381.7 113 409 119C436.3 125 463.7 117 491 117C518.3 117 545.7 125 573 117C600.3 109 627.7 85 654.8 81C682 77 709 93 736.2 94C763.3 95 790.7 81 818 81C845.3 81 872.7 95 886.3 102L900 109L900 0L886.3 0C872.7 0 845.3 0 818 0C790.7 0 763.3 0 736.2 0C709 0 682 0 654.8 0C627.7 0 600.3 0 573 0C545.7 0 518.3 0 491 0C463.7 0 436.3 0 409 0C381.7 0 354.3 0 327 0C299.7 0 272.3 0 245.2 0C218 0 191 0 163.8 0C136.7 0 109.3 0 82 0C54.7 0 27.3 0 13.7 0L0 0Z" fill="#ccc2e8"></path><path d="M0 163L13.7 163C27.3 163 54.7 163 82 170C109.3 177 136.7 191 163.8 192C191 193 218 181 245.2 173C272.3 165 299.7 161 327 167C354.3 173 381.7 189 409 191C436.3 193 463.7 181 491 176C518.3 171 545.7 173 573 167C600.3 161 627.7 147 654.8 149C682 151 709 169 736.2 168C763.3 167 790.7 147 818 145C845.3 143 872.7 159 886.3 167L900 175L900 107L886.3 100C872.7 93 845.3 79 818 79C790.7 79 763.3 93 736.2 92C709 91 682 75 654.8 79C627.7 83 600.3 107 573 115C545.7 123 518.3 115 491 115C463.7 115 436.3 123 409 117C381.7 111 354.3 91 327 83C299.7 75 272.3 79 245.2 86C218 93 191 103 163.8 99C136.7 95 109.3 77 82 70C54.7 63 27.3 67 13.7 69L0 71Z" fill="#b3a7dd"></path><path d="M0 409L13.7 404C27.3 399 54.7 389 82 375C109.3 361 136.7 343 163.8 327C191 311 218 297 245.2 301C272.3 305 299.7 327 327 335C354.3 343 381.7 337 409 340C436.3 343 463.7 355 491 361C518.3 367 545.7 367 573 349C600.3 331 627.7 295 654.8 288C682 281 709 303 736.2 311C763.3 319 790.7 313 818 309C845.3 305 872.7 303 886.3 302L900 301L900 173L886.3 165C872.7 157 845.3 141 818 143C790.7 145 763.3 165 736.2 166C709 167 682 149 654.8 147C627.7 145 600.3 159 573 165C545.7 171 518.3 169 491 174C463.7 179 436.3 191 409 189C381.7 187 354.3 171 327 165C299.7 159 272.3 163 245.2 171C218 179 191 191 163.8 190C136.7 189 109.3 175 82 168C54.7 161 27.3 161 13.7 161L0 161Z" fill="#8f80c2"></path><path d="M0 445L13.7 442C27.3 439 54.7 433 82 427C109.3 421 136.7 415 163.8 405C191 395 218 381 245.2 377C272.3 373 299.7 379 327 384C354.3 389 381.7 393 409 405C436.3 417 463.7 437 491 442C518.3 447 545.7 437 573 417C600.3 397 627.7 367 654.8 356C682 345 709 353 736.2 360C763.3 367 790.7 373 818 373C845.3 373 872.7 367 886.3 364L900 361L900 299L886.3 300C872.7 301 845.3 303 818 307C790.7 311 763.3 317 736.2 309C709 301 682 279 654.8 286C627.7 293 600.3 329 573 347C545.7 365 518.3 365 491 359C463.7 353 436.3 341 409 338C381.7 335 354.3 341 327 333C299.7 325 272.3 303 245.2 299C218 295 191 309 163.8 325C136.7 341 109.3 359 82 373C54.7 387 27.3 397 13.7 402L0 407Z" fill="#8f80c2"></path><path d="M0 559L13.7 559C27.3 559 54.7 559 82 554C109.3 549 136.7 539 163.8 537C191 535 218 541 245.2 542C272.3 543 299.7 539 327 542C354.3 545 381.7 555 409 560C436.3 565 463.7 565 491 558C518.3 551 545.7 537 573 531C600.3 525 627.7 527 654.8 531C682 535 709 541 736.2 543C763.3 545 790.7 543 818 546C845.3 549 872.7 557 886.3 561L900 565L900 359L886.3 362C872.7 365 845.3 371 818 371C790.7 371 763.3 365 736.2 358C709 351 682 343 654.8 354C627.7 365 600.3 395 573 415C545.7 435 518.3 445 491 440C463.7 435 436.3 415 409 403C381.7 391 354.3 387 327 382C299.7 377 272.3 371 245.2 375C218 379 191 393 163.8 403C136.7 413 109.3 419 82 425C54.7 431 27.3 437 13.7 440L0 443Z" fill="#b3a7dd"></path><path d="M0 601L13.7 601C27.3 601 54.7 601 82 601C109.3 601 136.7 601 163.8 601C191 601 218 601 245.2 601C272.3 601 299.7 601 327 601C354.3 601 381.7 601 409 601C436.3 601 463.7 601 491 601C518.3 601 545.7 601 573 601C600.3 601 627.7 601 654.8 601C682 601 709 601 736.2 601C763.3 601 790.7 601 818 601C845.3 601 872.7 601 886.3 601L900 601L900 563L886.3 559C872.7 555 845.3 547 818 544C790.7 541 763.3 543 736.2 541C709 539 682 533 654.8 529C627.7 525 600.3 523 573 529C545.7 535 518.3 549 491 556C463.7 563 436.3 563 409 558C381.7 553 354.3 543 327 540C299.7 537 272.3 541 245.2 540C218 539 191 533 163.8 535C136.7 537 109.3 547 82 552C54.7 557 27.3 557 13.7 557L0 557Z" fill="#ccc2e8"></path></svg>