<svg id="visual" viewBox="0 0 900 600" width="900" height="600" xmlns="http://www.w3.org/2000/svg" xmlns:xlink="http://www.w3.org/1999/xlink" version="1.1"><path d="M0 37L13.7 41C27.3 45 54.7 53 82 58C109.3 63 136.7 65 163.8 61C191 57 218 47 245.2 45C272.3 43 299.7 49 327 52C354.3 55 381.7 55 409 52C436.3 49 463.7 43 491 44C518.3 45 545.7 53 573 60C600.3 67 627.7 73 654.8 72C682 71 709 63 736.2 62C763.3 61 790.7 67 818 69C845.3 71 872.7 69 886.3 68L900 67L900 0L886.3 0C872.7 0 845.3 0 818 0C790.7 0 763.3 0 736.2 0C709 0 682 0 654.8 0C627.7 0 600.3 0 573 0C545.7 0 518.3 0 491 0C463.7 0 436.3 0 409 0C381.7 0 354.3 0 327 0C299.7 0 272.3 0 245.2 0C218 0 191 0 163.8 0C136.7 0 109.3 0 82 0C54.7 0 27.3 0 13.7 0L0 0Z" fill="#ccc2e8"></path><path d="M0 211L13.7 221C27.3 231 54.7 251 82 244C109.3 237 136.7 203 163.8 182C191 161 218 153 245.2 162C272.3 171 299.7 197 327 212C354.3 227 381.7 231 409 239C436.3 247 463.7 259 491 249C518.3 239 545.7 207 573 209C600.3 211 627.7 247 654.8 261C682 275 709 267 736.2 249C763.3 231 790.7 203 818 188C845.3 173 872.7 171 886.3 170L900 169L900 65L886.3 66C872.7 67 845.3 69 818 67C790.7 65 763.3 59 736.2 60C709 61 682 69 654.8 70C627.7 71 600.3 65 573 58C545.7 51 518.3 43 491 42C463.7 41 436.3 47 409 50C381.7 53 354.3 53 327 50C299.7 47 272.3 41 245.2 43C218 45 191 55 163.8 59C136.7 63 109.3 61 82 56C54.7 51 27.3 43 13.7 39L0 35Z" fill="#b3a7dd"></path><path d="M0 271L13.7 282C27.3 293 54.7 315 82 318C109.3 321 136.7 305 163.8 295C191 285 218 281 245.2 291C272.3 301 299.7 325 327 331C354.3 337 381.7 325 409 322C436.3 319 463.7 325 491 315C518.3 305 545.7 279 573 289C600.3 299 627.7 345 654.8 370C682 395 709 399 736.2 376C763.3 353 790.7 303 818 283C845.3 263 872.7 273 886.3 278L900 283L900 167L886.3 168C872.7 169 845.3 171 818 186C790.7 201 763.3 229 736.2 247C709 265 682 273 654.8 259C627.7 245 600.3 209 573 207C545.7 205 518.3 237 491 247C463.7 257 436.3 245 409 237C381.7 229 354.3 225 327 210C299.7 195 272.3 169 245.2 160C218 151 191 159 163.8 180C136.7 201 109.3 235 82 242C54.7 249 27.3 229 13.7 219L0 209Z" fill="#8f80c2"></path><path d="M0 343L13.7 356C27.3 369 54.7 395 82 400C109.3 405 136.7 389 163.8 374C191 359 218 345 245.2 349C272.3 353 299.7 375 327 380C354.3 385 381.7 373 409 369C436.3 365 463.7 369 491 357C518.3 345 545.7 317 573 328C600.3 339 627.7 389 654.8 417C682 445 709 451 736.2 427C763.3 403 790.7 349 818 327C845.3 305 872.7 315 886.3 320L900 325L900 281L886.3 276C872.7 271 845.3 261 818 281C790.7 301 763.3 351 736.2 374C709 397 682 393 654.8 368C627.7 343 600.3 297 573 287C545.7 277 518.3 303 491 313C463.7 323 436.3 317 409 320C381.7 323 354.3 335 327 329C299.7 323 272.3 299 245.2 289C218 279 191 283 163.8 293C136.7 303 109.3 319 82 316C54.7 313 27.3 291 13.7 280L0 269Z" fill="#8f80c2"></path><path d="M0 445L13.7 448C27.3 451 54.7 457 82 459C109.3 461 136.7 459 163.8 449C191 439 218 421 245.2 422C272.3 423 299.7 443 327 454C354.3 465 381.7 467 409 471C436.3 475 463.7 481 491 468C518.3 455 545.7 423 573 428C600.3 433 627.7 475 654.8 496C682 517 709 517 736.2 496C763.3 475 790.7 433 818 418C845.3 403 872.7 415 886.3 421L900 427L900 323L886.3 318C872.7 313 845.3 303 818 325C790.7 347 763.3 401 736.2 425C709 449 682 443 654.8 415C627.7 387 600.3 337 573 326C545.7 315 518.3 343 491 355C463.7 367 436.3 363 409 367C381.7 371 354.3 383 327 378C299.7 373 272.3 351 245.2 347C218 343 191 357 163.8 372C136.7 387 109.3 403 82 398C54.7 393 27.3 367 13.7 354L0 341Z" fill="#b3a7dd"></path><path d="M0 601L13.7 601C27.3 601 54.7 601 82 601C109.3 601 136.7 601 163.8 601C191 601 218 601 245.2 601C272.3 601 299.7 601 327 601C354.3 601 381.7 601 409 601C436.3 601 463.7 601 491 601C518.3 601 545.7 601 573 601C600.3 601 627.7 601 654.8 601C682 601 709 601 736.2 601C763.3 601 790.7 601 818 601C845.3 601 872.7 601 886.3 601L900 601L900 425L886.3 419C872.7 413 845.3 401 818 416C790.7 431 763.3 473 736.2 494C709 515 682 515 654.8 494C627.7 473 600.3 431 573 426C545.7 421 518.3 453 491 466C463.7 479 436.3 473 409 469C381.7 465 354.3 463 327 452C299.7 441 272.3 421 245.2 420C218 419 191 437 163.8 447C136.7 457 109.3 459 82 457C54.7 455 27.3 449 13.7 446L0 443Z" fill="#ccc2e8"></path></svg>