<svg id="visual" viewBox="0 0 900 450" width="900" height="450" xmlns="http://www.w3.org/2000/svg" xmlns:xlink="http://www.w3.org/1999/xlink" version="1.1"><rect x="0" y="0" width="900" height="450" fill="#22272a"></rect><path d="M0 325L16.7 326.5C33.3 328 66.7 331 100 338.8C133.3 346.7 166.7 359.3 200 364.7C233.3 370 266.7 368 300 359.3C333.3 350.7 366.7 335.3 400 327C433.3 318.7 466.7 317.3 500 324.8C533.3 332.3 566.7 348.7 600 362.7C633.3 376.7 666.7 388.3 700 380.5C733.3 372.7 766.7 345.3 800 339C833.3 332.7 866.7 347.3 883.3 354.7L900 362L900 451L883.3 451C866.7 451 833.3 451 800 451C766.7 451 733.3 451 700 451C666.7 451 633.3 451 600 451C566.7 451 533.3 451 500 451C466.7 451 433.3 451 400 451C366.7 451 333.3 451 300 451C266.7 451 233.3 451 200 451C166.7 451 133.3 451 100 451C66.7 451 33.3 451 16.7 451L0 451Z" fill="#664fba" stroke-linecap="round" stroke-linejoin="miter"></path></svg>