<svg id="visual" viewBox="0 0 900 450" width="900" height="450" xmlns="http://www.w3.org/2000/svg" xmlns:xlink="http://www.w3.org/1999/xlink" version="1.1"><rect x="0" y="0" width="900" height="450" fill="#2e19b3"></rect><path d="M0 391L30 388.5C60 386 120 381 180 378.7C240 376.3 300 376.7 360 377.7C420 378.7 480 380.3 540 383.2C600 386 660 390 720 389.5C780 389 840 384 870 381.5L900 379L900 451L870 451C840 451 780 451 720 451C660 451 600 451 540 451C480 451 420 451 360 451C300 451 240 451 180 451C120 451 60 451 30 451L0 451Z" fill="#B3A7DD" stroke-linecap="round" stroke-linejoin="miter"></path></svg>