<svg id="visual" viewBox="0 0 900 600" width="900" height="600" xmlns="http://www.w3.org/2000/svg" xmlns:xlink="http://www.w3.org/1999/xlink" version="1.1"><path d="M0 79L13.7 75C27.3 71 54.7 63 82 61C109.3 59 136.7 63 163.8 68C191 73 218 79 245.2 77C272.3 75 299.7 65 327 67C354.3 69 381.7 83 409 85C436.3 87 463.7 77 491 78C518.3 79 545.7 91 573 91C600.3 91 627.7 79 654.8 76C682 73 709 79 736.2 83C763.3 87 790.7 89 818 84C845.3 79 872.7 67 886.3 61L900 55L900 0L886.3 0C872.7 0 845.3 0 818 0C790.7 0 763.3 0 736.2 0C709 0 682 0 654.8 0C627.7 0 600.3 0 573 0C545.7 0 518.3 0 491 0C463.7 0 436.3 0 409 0C381.7 0 354.3 0 327 0C299.7 0 272.3 0 245.2 0C218 0 191 0 163.8 0C136.7 0 109.3 0 82 0C54.7 0 27.3 0 13.7 0L0 0Z" fill="#22272a"></path><path d="M0 211L13.7 203C27.3 195 54.7 179 82 176C109.3 173 136.7 183 163.8 183C191 183 218 173 245.2 161C272.3 149 299.7 135 327 140C354.3 145 381.7 169 409 173C436.3 177 463.7 161 491 169C518.3 177 545.7 209 573 214C600.3 219 627.7 197 654.8 196C682 195 709 215 736.2 219C763.3 223 790.7 211 818 201C845.3 191 872.7 183 886.3 179L900 175L900 53L886.3 59C872.7 65 845.3 77 818 82C790.7 87 763.3 85 736.2 81C709 77 682 71 654.8 74C627.7 77 600.3 89 573 89C545.7 89 518.3 77 491 76C463.7 75 436.3 85 409 83C381.7 81 354.3 67 327 65C299.7 63 272.3 73 245.2 75C218 77 191 71 163.8 66C136.7 61 109.3 57 82 59C54.7 61 27.3 69 13.7 73L0 77Z" fill="#6a7798"></path><path d="M0 337L13.7 336C27.3 335 54.7 333 82 334C109.3 335 136.7 339 163.8 335C191 331 218 319 245.2 304C272.3 289 299.7 271 327 270C354.3 269 381.7 285 409 293C436.3 301 463.7 301 491 328C518.3 355 545.7 409 573 422C600.3 435 627.7 407 654.8 404C682 401 709 423 736.2 424C763.3 425 790.7 405 818 386C845.3 367 872.7 349 886.3 340L900 331L900 173L886.3 177C872.7 181 845.3 189 818 199C790.7 209 763.3 221 736.2 217C709 213 682 193 654.8 194C627.7 195 600.3 217 573 212C545.7 207 518.3 175 491 167C463.7 159 436.3 175 409 171C381.7 167 354.3 143 327 138C299.7 133 272.3 147 245.2 159C218 171 191 181 163.8 181C136.7 181 109.3 171 82 174C54.7 177 27.3 193 13.7 201L0 209Z" fill="#b3a7dc"></path><path d="M0 379L13.7 383C27.3 387 54.7 395 82 405C109.3 415 136.7 427 163.8 420C191 413 218 387 245.2 370C272.3 353 299.7 345 327 349C354.3 353 381.7 369 409 378C436.3 387 463.7 389 491 410C518.3 431 545.7 471 573 482C600.3 493 627.7 475 654.8 474C682 473 709 489 736.2 493C763.3 497 790.7 489 818 469C845.3 449 872.7 417 886.3 401L900 385L900 329L886.3 338C872.7 347 845.3 365 818 384C790.7 403 763.3 423 736.2 422C709 421 682 399 654.8 402C627.7 405 600.3 433 573 420C545.7 407 518.3 353 491 326C463.7 299 436.3 299 409 291C381.7 283 354.3 267 327 268C299.7 269 272.3 287 245.2 302C218 317 191 329 163.8 333C136.7 337 109.3 333 82 332C54.7 331 27.3 333 13.7 334L0 335Z" fill="#6a7798"></path><path d="M0 601L13.7 601C27.3 601 54.7 601 82 601C109.3 601 136.7 601 163.8 601C191 601 218 601 245.2 601C272.3 601 299.7 601 327 601C354.3 601 381.7 601 409 601C436.3 601 463.7 601 491 601C518.3 601 545.7 601 573 601C600.3 601 627.7 601 654.8 601C682 601 709 601 736.2 601C763.3 601 790.7 601 818 601C845.3 601 872.7 601 886.3 601L900 601L900 383L886.3 399C872.7 415 845.3 447 818 467C790.7 487 763.3 495 736.2 491C709 487 682 471 654.8 472C627.7 473 600.3 491 573 480C545.7 469 518.3 429 491 408C463.7 387 436.3 385 409 376C381.7 367 354.3 351 327 347C299.7 343 272.3 351 245.2 368C218 385 191 411 163.8 418C136.7 425 109.3 413 82 403C54.7 393 27.3 385 13.7 381L0 377Z" fill="#22272a"></path></svg>