<svg id="visual" viewBox="0 0 960 540" width="960" height="540" xmlns="http://www.w3.org/2000/svg" xmlns:xlink="http://www.w3.org/1999/xlink" version="1.1"><g><g transform="translate(810 437)"><path d="M81.6 -44.9C101 -13.5 108.8 26.9 93.2 58.5C77.7 90.1 38.8 113 0.3 112.8C-38.3 112.7 -76.6 89.5 -95.8 55.8C-115 22.1 -115 -22.2 -95.9 -53.4C-76.7 -84.7 -38.3 -103 -3.6 -100.9C31.1 -98.8 62.2 -76.3 81.6 -44.9Z" stroke="#F97D7D" fill="none" stroke-width="20"></path></g><g transform="translate(457 15)"><path d="M67 -38.3C82.8 -11.4 88.6 21.6 75.8 47.2C63 72.9 31.5 91.2 1.7 90.2C-28.1 89.2 -56.1 68.9 -68.5 43.5C-80.9 18.1 -77.6 -12.4 -63.5 -38.3C-49.5 -64.2 -24.7 -85.5 0.4 -85.8C25.6 -86 51.2 -65.2 67 -38.3Z" stroke="#F97D7D" fill="none" stroke-width="20"></path></g><g transform="translate(338 461)"><path d="M60.6 -33.6C72.6 -14.2 72.3 13.7 60.1 33.6C48 53.5 24 65.4 0 65.4C-24 65.4 -48 53.5 -59.7 33.8C-71.4 14.2 -70.9 -13.2 -58.9 -32.6C-46.9 -52 -23.4 -63.5 0.4 -63.8C24.3 -64 48.6 -53.1 60.6 -33.6Z" stroke="#F97D7D" fill="none" stroke-width="20"></path></g><g transform="translate(954 85)"><path d="M40.9 -23.6C48.5 -10.4 47.2 8 38.9 21.9C30.6 35.7 15.3 44.9 0 44.9C-15.3 44.9 -30.6 35.7 -38.5 22.2C-46.3 8.6 -46.7 -9.3 -39.1 -22.5C-31.4 -35.8 -15.7 -44.3 0.5 -44.6C16.6 -44.8 33.2 -36.8 40.9 -23.6Z" stroke="#F97D7D" fill="none" stroke-width="20"></path></g><g transform="translate(144 84)"><path d="M56.7 -34C66 -16.6 60.8 7.8 49 26C37.1 44.2 18.6 56.2 -1.1 56.8C-20.7 57.4 -41.4 46.6 -51.1 29.6C-60.8 12.7 -59.5 -10.5 -49.2 -28.4C-38.8 -46.4 -19.4 -59.2 2.1 -60.4C23.7 -61.7 47.4 -51.4 56.7 -34Z" stroke="#F97D7D" fill="none" stroke-width="20"></path></g><g transform="translate(567 302)"><path d="M87.4 -50.8C105.7 -18.7 107.9 22.5 90.7 50.5C73.4 78.5 36.7 93.4 3.2 91.6C-30.2 89.7 -60.5 71 -76.9 43.5C-93.3 16 -95.8 -20.4 -80.7 -50.7C-65.6 -81 -32.8 -105.1 0.9 -105.6C34.5 -106.2 69 -83 87.4 -50.8Z" stroke="#F97D7D" fill="none" stroke-width="20"></path></g><g transform="translate(41 374)"><path d="M74.7 -41.9C90.9 -15 94.1 20.6 79.5 45C64.9 69.4 32.4 82.6 -1.2 83.3C-34.9 84.1 -69.9 72.3 -87.6 46.1C-105.3 19.9 -105.8 -20.8 -88.4 -48.4C-70.9 -76 -35.4 -90.6 -3.1 -88.8C29.2 -87 58.5 -68.8 74.7 -41.9Z" stroke="#F97D7D" fill="none" stroke-width="20"></path></g></g></svg>