<svg id="visual" viewBox="0 0 900 675" width="900" height="675" xmlns="http://www.w3.org/2000/svg" xmlns:xlink="http://www.w3.org/1999/xlink" version="1.1"><rect width="900" height="675" fill="#22272A"></rect><g><g transform="translate(118 224)"><path d="M78.1 -24.1C88.2 5.7 74.4 44.6 47.9 63.1C21.5 81.7 -17.7 80 -43.8 60.9C-69.8 41.8 -82.9 5.3 -73.4 -23.6C-63.9 -52.5 -32 -73.8 1 -74.2C34 -74.5 68 -53.8 78.1 -24.1Z" fill="none" stroke="#664FBA" stroke-width="21"></path></g><g transform="translate(482 328)"><path d="M50.9 -19C57.5 3.6 48.4 28.8 29.8 42.7C11.3 56.6 -16.7 59 -33.9 46.6C-51.1 34.1 -57.6 6.6 -50.1 -17.2C-42.7 -41 -21.3 -61.2 0.4 -61.4C22.2 -61.5 44.4 -41.6 50.9 -19Z" fill="none" stroke="#664FBA" stroke-width="21"></path></g><g transform="translate(702 509)"><path d="M63.9 -20.6C72.2 4.7 60.9 36.5 38.5 52.8C16 69.1 -17.6 69.8 -40.3 53.7C-63 37.6 -74.8 4.7 -66.2 -20.9C-57.7 -46.6 -28.8 -65 -0.5 -64.8C27.8 -64.7 55.6 -45.9 63.9 -20.6Z" fill="none" stroke="#664FBA" stroke-width="21"></path></g><g transform="translate(306 540)"><path d="M21.6 -7.3C24.7 2.6 21.7 14.2 13.6 20.6C5.5 26.9 -7.7 27.9 -15.7 22C-23.6 16.1 -26.2 3.4 -22.7 -7C-19.2 -17.4 -9.6 -25.4 -0.2 -25.3C9.2 -25.3 18.5 -17.1 21.6 -7.3Z" fill="none" stroke="#664FBA" stroke-width="21"></path></g><g transform="translate(634 138)"><path d="M36.2 -11.7C41.4 4.2 36.3 23.5 23.5 33C10.6 42.5 -9.9 42.2 -23.5 32.3C-37.2 22.4 -44 2.9 -38.9 -12.8C-33.8 -28.6 -16.9 -40.6 -0.7 -40.4C15.5 -40.1 31 -27.6 36.2 -11.7Z" fill="none" stroke="#664FBA" stroke-width="21"></path></g><g transform="translate(347 139)"><path d="M31.8 -9.6C36.8 5.1 33.4 23.3 22.7 31C12 38.7 -6.2 36.1 -17.8 27C-29.4 18 -34.5 2.6 -30.5 -10.9C-26.4 -24.3 -13.2 -35.7 0.1 -35.8C13.4 -35.8 26.8 -24.4 31.8 -9.6Z" fill="none" stroke="#664FBA" stroke-width="21"></path></g></g></svg>