<svg id="visual" viewBox="0 0 960 150" width="960" height="150" xmlns="http://www.w3.org/2000/svg" xmlns:xlink="http://www.w3.org/1999/xlink" version="1.1"><rect x="0" y="0" width="960" height="150" fill="#22272a"></rect><path d="M0 61L16 55.8C32 50.7 64 40.3 96 43.2C128 46 160 62 192 69.3C224 76.7 256 75.3 288 68.8C320 62.3 352 50.7 384 47.2C416 43.7 448 48.3 480 49C512 49.7 544 46.3 576 50C608 53.7 640 64.3 672 67C704 69.7 736 64.3 768 57.7C800 51 832 43 864 41.3C896 39.7 928 44.3 944 46.7L960 49" fill="none" stroke-linecap="round" stroke-linejoin="miter" stroke="#664fba" stroke-width="40"></path></svg>