<svg id="visual" viewBox="0 0 900 600" width="900" height="600" xmlns="http://www.w3.org/2000/svg" xmlns:xlink="http://www.w3.org/1999/xlink" version="1.1"><path d="M0 187L15 170C30 153 60 119 90 103C120 87 150 89 180 91C210 93 240 95 270 101C300 107 330 117 360 133C390 149 420 171 450 177C480 183 510 173 540 163C570 153 600 143 630 141C660 139 690 145 720 157C750 169 780 187 810 183C840 179 870 153 885 140L900 127L900 0L885 0C870 0 840 0 810 0C780 0 750 0 720 0C690 0 660 0 630 0C600 0 570 0 540 0C510 0 480 0 450 0C420 0 390 0 360 0C330 0 300 0 270 0C240 0 210 0 180 0C150 0 120 0 90 0C60 0 30 0 15 0L0 0Z" fill="#22272a"></path><path d="M0 229L15 217C30 205 60 181 90 167C120 153 150 149 180 155C210 161 240 177 270 189C300 201 330 209 360 220C390 231 420 245 450 251C480 257 510 255 540 245C570 235 600 217 630 216C660 215 690 231 720 243C750 255 780 263 810 257C840 251 870 231 885 221L900 211L900 125L885 138C870 151 840 177 810 181C780 185 750 167 720 155C690 143 660 137 630 139C600 141 570 151 540 161C510 171 480 181 450 175C420 169 390 147 360 131C330 115 300 105 270 99C240 93 210 91 180 89C150 87 120 85 90 101C60 117 30 151 15 168L0 185Z" fill="#69778d"></path><path d="M0 319L15 306C30 293 60 267 90 252C120 237 150 233 180 237C210 241 240 253 270 261C300 269 330 273 360 279C390 285 420 293 450 298C480 303 510 305 540 299C570 293 600 279 630 275C660 271 690 277 720 289C750 301 780 319 810 314C840 309 870 281 885 267L900 253L900 209L885 219C870 229 840 249 810 255C780 261 750 253 720 241C690 229 660 213 630 214C600 215 570 233 540 243C510 253 480 255 450 249C420 243 390 229 360 218C330 207 300 199 270 187C240 175 210 159 180 153C150 147 120 151 90 165C60 179 30 203 15 215L0 227Z" fill="#d5cbfa"></path><path d="M0 361L15 353C30 345 60 329 90 320C120 311 150 309 180 309C210 309 240 311 270 314C300 317 330 321 360 332C390 343 420 361 450 366C480 371 510 363 540 357C570 351 600 347 630 345C660 343 690 343 720 354C750 365 780 387 810 384C840 381 870 353 885 339L900 325L900 251L885 265C870 279 840 307 810 312C780 317 750 299 720 287C690 275 660 269 630 273C600 277 570 291 540 297C510 303 480 301 450 296C420 291 390 283 360 277C330 271 300 267 270 259C240 251 210 239 180 235C150 231 120 235 90 250C60 265 30 291 15 304L0 317Z" fill="#d5cbfa"></path><path d="M0 493L15 483C30 473 60 453 90 434C120 415 150 397 180 388C210 379 240 379 270 385C300 391 330 403 360 424C390 445 420 475 450 480C480 485 510 465 540 447C570 429 600 413 630 408C660 403 690 409 720 422C750 435 780 455 810 458C840 461 870 447 885 440L900 433L900 323L885 337C870 351 840 379 810 382C780 385 750 363 720 352C690 341 660 341 630 343C600 345 570 349 540 355C510 361 480 369 450 364C420 359 390 341 360 330C330 319 300 315 270 312C240 309 210 307 180 307C150 307 120 309 90 318C60 327 30 343 15 351L0 359Z" fill="#69778d"></path><path d="M0 601L15 601C30 601 60 601 90 601C120 601 150 601 180 601C210 601 240 601 270 601C300 601 330 601 360 601C390 601 420 601 450 601C480 601 510 601 540 601C570 601 600 601 630 601C660 601 690 601 720 601C750 601 780 601 810 601C840 601 870 601 885 601L900 601L900 431L885 438C870 445 840 459 810 456C780 453 750 433 720 420C690 407 660 401 630 406C600 411 570 427 540 445C510 463 480 483 450 478C420 473 390 443 360 422C330 401 300 389 270 383C240 377 210 377 180 386C150 395 120 413 90 432C60 451 30 471 15 481L0 491Z" fill="#22272a"></path></svg>