<svg id="visual" viewBox="0 0 900 600" width="900" height="600" xmlns="http://www.w3.org/2000/svg" xmlns:xlink="http://www.w3.org/1999/xlink" version="1.1"><path d="M0 85L21.5 72C43 59 86 33 128.8 28C171.7 23 214.3 39 257.2 59C300 79 343 103 385.8 96C428.7 89 471.3 51 514.2 37C557 23 600 33 642.8 52C685.7 71 728.3 99 771.2 96C814 93 857 59 878.5 42L900 25L900 0L878.5 0C857 0 814 0 771.2 0C728.3 0 685.7 0 642.8 0C600 0 557 0 514.2 0C471.3 0 428.7 0 385.8 0C343 0 300 0 257.2 0C214.3 0 171.7 0 128.8 0C86 0 43 0 21.5 0L0 0Z" fill="#141250"></path><path d="M0 121L21.5 128C43 135 86 149 128.8 150C171.7 151 214.3 139 257.2 155C300 171 343 215 385.8 218C428.7 221 471.3 183 514.2 160C557 137 600 129 642.8 136C685.7 143 728.3 165 771.2 187C814 209 857 231 878.5 242L900 253L900 23L878.5 40C857 57 814 91 771.2 94C728.3 97 685.7 69 642.8 50C600 31 557 21 514.2 35C471.3 49 428.7 87 385.8 94C343 101 300 77 257.2 57C214.3 37 171.7 21 128.8 26C86 31 43 57 21.5 70L0 83Z" fill="#44387d"></path><path d="M0 313L21.5 313C43 313 86 313 128.8 301C171.7 289 214.3 265 257.2 262C300 259 343 277 385.8 263C428.7 249 471.3 203 514.2 207C557 211 600 265 642.8 291C685.7 317 728.3 315 771.2 325C814 335 857 357 878.5 368L900 379L900 251L878.5 240C857 229 814 207 771.2 185C728.3 163 685.7 141 642.8 134C600 127 557 135 514.2 158C471.3 181 428.7 219 385.8 216C343 213 300 169 257.2 153C214.3 137 171.7 149 128.8 148C86 147 43 133 21.5 126L0 119Z" fill="#7363ad"></path><path d="M0 319L21.5 334C43 349 86 379 128.8 382C171.7 385 214.3 361 257.2 347C300 333 343 329 385.8 313C428.7 297 471.3 269 514.2 272C557 275 600 309 642.8 336C685.7 363 728.3 383 771.2 404C814 425 857 447 878.5 458L900 469L900 377L878.5 366C857 355 814 333 771.2 323C728.3 313 685.7 315 642.8 289C600 263 557 209 514.2 205C471.3 201 428.7 247 385.8 261C343 275 300 257 257.2 260C214.3 263 171.7 287 128.8 299C86 311 43 311 21.5 311L0 311Z" fill="#7363ad"></path><path d="M0 565L21.5 561C43 557 86 549 128.8 546C171.7 543 214.3 545 257.2 547C300 549 343 551 385.8 546C428.7 541 471.3 529 514.2 522C557 515 600 513 642.8 526C685.7 539 728.3 567 771.2 565C814 563 857 531 878.5 515L900 499L900 467L878.5 456C857 445 814 423 771.2 402C728.3 381 685.7 361 642.8 334C600 307 557 273 514.2 270C471.3 267 428.7 295 385.8 311C343 327 300 331 257.2 345C214.3 359 171.7 383 128.8 380C86 377 43 347 21.5 332L0 317Z" fill="#44387d"></path><path d="M0 601L21.5 601C43 601 86 601 128.8 601C171.7 601 214.3 601 257.2 601C300 601 343 601 385.8 601C428.7 601 471.3 601 514.2 601C557 601 600 601 642.8 601C685.7 601 728.3 601 771.2 601C814 601 857 601 878.5 601L900 601L900 497L878.5 513C857 529 814 561 771.2 563C728.3 565 685.7 537 642.8 524C600 511 557 513 514.2 520C471.3 527 428.7 539 385.8 544C343 549 300 547 257.2 545C214.3 543 171.7 541 128.8 544C86 547 43 555 21.5 559L0 563Z" fill="#141250"></path></svg>